<?xml version="1.0" encoding="UTF-8" standalone="no"?>
<!-- Created with Inkscape (http://www.inkscape.org/) -->

<svg
   xmlns:dc="http://purl.org/dc/elements/1.1/"
   xmlns:cc="http://creativecommons.org/ns#"
   xmlns:rdf="http://www.w3.org/1999/02/22-rdf-syntax-ns#"
   xmlns:svg="http://www.w3.org/2000/svg"
   xmlns="http://www.w3.org/2000/svg"
   xmlns:sodipodi="http://sodipodi.sourceforge.net/DTD/sodipodi-0.dtd"
   xmlns:inkscape="http://www.inkscape.org/namespaces/inkscape"
   width="210mm"
   height="80mm"
   viewBox="0 0 210 80"
   version="1.1"
   id="svg8"
   inkscape:version="0.92.4 (5da689c313, 2019-01-14)"
   sodipodi:docname="logo.svg">
  <defs
     id="defs2" />
  <sodipodi:namedview
     id="base"
     pagecolor="#ffffff"
     bordercolor="#666666"
     borderopacity="1.0"
     inkscape:pageopacity="0.0"
     inkscape:pageshadow="2"
     inkscape:zoom="0.7"
     inkscape:cx="421.56033"
     inkscape:cy="133.26103"
     inkscape:document-units="mm"
     inkscape:current-layer="layer1"
     showgrid="false"
     inkscape:snap-global="true"
     showguides="false"
     inkscape:window-width="1280"
     inkscape:window-height="697"
     inkscape:window-x="-8"
     inkscape:window-y="-8"
     inkscape:window-maximized="1">
    <inkscape:grid
       type="xygrid"
       id="grid42" />
  </sodipodi:namedview>
  <metadata
     id="metadata5">
    <rdf:RDF>
      <cc:Work
         rdf:about="">
        <dc:format>image/svg+xml</dc:format>
        <dc:type
           rdf:resource="http://purl.org/dc/dcmitype/StillImage" />
        <dc:title></dc:title>
      </cc:Work>
    </rdf:RDF>
  </metadata>
  <g
     inkscape:label="Layer 1"
     inkscape:groupmode="layer"
     id="layer1"
     style="display:inline"
     transform="translate(0,-217)">
    <ellipse
       style="fill:#008000;stroke-width:0.38438496"
       id="path25"
       cx="43.839794"
       cy="257.60806"
       rx="40.471397"
       ry="37.94194" />
    <ellipse
       ry="37.94194"
       rx="40.471397"
       cy="259.05347"
       cx="164.53128"
       id="ellipse38"
       style="fill:#008000;stroke-width:0.38438496" />
    <ellipse
       style="fill:#008000;stroke-width:0.38438496"
       id="ellipse40"
       cx="103.10152"
       cy="256.88535"
       rx="40.471397"
       ry="37.94194" />
  </g>
  <g
     inkscape:groupmode="layer"
     id="layer2"
     inkscape:label="Text"
     transform="translate(0,-217)">
    <g
       aria-label="Nonni"
       style="font-style:normal;font-variant:normal;font-weight:normal;font-stretch:normal;font-size:58.81147003px;line-height:1.25;font-family:'My Best Shot';-inkscape-font-specification:'My Best Shot';letter-spacing:0px;word-spacing:0px;display:inline;fill:#f4d7d7;fill-opacity:1;stroke:none;stroke-width:0.30630973"
       id="text12"
       transform="matrix(1.1678375,0,0,1.1678375,-9.116689,207.96486)">
      <path
         d="m 52.054206,17.448165 q 1.823155,0 3.175819,1.352664 1.352664,1.352664 2.293647,3.469877 0.940984,2.117212 1.529099,4.763729 0.588114,2.587704 0.940983,5.175409 0.352869,2.528893 0.470492,4.763729 0.117623,2.234836 0.117623,3.528688 0,1.411476 -0.117623,3.411065 -0.117623,1.99959 -0.470492,4.175615 -0.294057,2.176024 -0.940983,4.352049 -0.588115,2.117213 -1.58791,3.822745 -0.940984,1.705533 -2.41127,2.764139 -1.411476,1.058607 -3.352254,1.058607 -1.17623,0 -2.117213,-0.705738 -0.882172,-0.705738 -1.646721,-1.529098 -1.352664,-1.58791 -2.881762,-4.352049 -1.470287,-2.764139 -2.940574,-5.822335 -1.470287,-3.117008 -2.705327,-6.057582 -1.235041,-2.999385 -2.058402,-4.998975 -0.117623,2.234836 -0.176434,4.41086 0,2.117213 0,4.352049 0,0.999795 0,2.646516 0.05881,1.58791 0.117623,3.293443 0.117623,1.705532 0.352869,3.234631 0.235245,1.529098 0.646926,2.41127 0.176434,0.294057 0.294057,0.588115 0.117623,0.294057 0.117623,0.705737 0,0.940984 -0.705738,1.646721 -0.705737,0.646927 -1.646721,0.646927 -1.764344,0 -2.999385,-0.882173 -1.176229,-0.940983 -1.99959,-2.41127 -0.82336,-1.470287 -1.293852,-3.293442 -0.41168,-1.881967 -0.646926,-3.763934 -0.235246,-1.881967 -0.294058,-3.5875 -0.05881,-1.764344 -0.05881,-2.999385 0,-0.999795 0.05881,-2.940573 0.05881,-1.940779 0.294058,-4.175615 0.235246,-2.293647 0.646926,-4.646106 0.470492,-2.41127 1.176229,-4.352049 0.705738,-1.99959 1.764344,-3.234631 1.058607,-1.23504 2.528894,-1.23504 0.999795,0 1.529098,0.588114 0.529303,0.588115 0.82336,1.411476 0.470492,1.470286 1.352664,3.940368 0.940984,2.470082 2.117213,5.410655 1.235041,2.940574 2.587705,6.057582 1.411475,3.117008 2.764139,5.939958 1.352664,2.764139 2.587705,4.998975 1.23504,2.234836 2.176024,3.352254 0.529303,-1.529098 0.882172,-3.5875 0.352869,-2.058401 0.529303,-4.234426 0.235246,-2.176024 0.294058,-4.293237 0.05881,-2.176024 0.05881,-3.822745 0,-0.882172 -0.05881,-2.293648 0,-1.411475 -0.117623,-3.058196 -0.117623,-1.646721 -0.294058,-3.352254 -0.117623,-1.764344 -0.352869,-3.352254 -0.235245,-1.587909 -0.588114,-2.82295 -0.352869,-1.235041 -0.764549,-1.940779 -1.352664,-0.705737 -1.352664,-2.176024 0,-0.940984 0.705738,-1.646721 0.705737,-0.705738 1.646721,-0.705738 z"
         style="font-style:normal;font-variant:normal;font-weight:normal;font-stretch:normal;font-family:'My Best Shot';-inkscape-font-specification:'My Best Shot';fill:#f4d7d7;stroke-width:0.30630973"
         id="path44"
         inkscape:connector-curvature="0" />
      <path
         d="m 77.885306,31.151237 q 6.116393,0 9.703893,3.234631 3.646311,3.17582 3.646311,8.998155 0,3.17582 -1.117418,6.292828 -1.058607,3.117007 -3.058196,5.645901 -1.99959,2.470081 -4.76373,4.057991 -2.705327,1.529098 -5.99877,1.529098 -3.058196,0 -5.587089,-1.352663 -2.470082,-1.352664 -4.234426,-3.5875 -1.705533,-2.293647 -2.646516,-5.116598 -0.940984,-2.881762 -0.940984,-5.881147 0,-3.352254 1.117418,-5.939959 1.17623,-2.587704 3.17582,-4.293237 2.058401,-1.764344 4.763729,-2.646516 2.764139,-0.940984 5.939958,-0.940984 z m -6.175204,13.761884 q 0,1.764345 0.294057,3.763935 0.294058,1.940778 0.940984,3.646311 0.646926,1.646721 1.646721,2.764139 0.999795,1.117418 2.41127,1.117418 1.529098,0 2.705328,-1.293853 1.235041,-1.352663 2.058401,-3.352253 0.882172,-1.99959 1.352664,-4.352049 0.470492,-2.352459 0.470492,-4.41086 0,-1.352664 -0.235246,-2.587705 -0.235246,-1.235041 -0.882172,-2.176025 -0.588115,-0.999795 -1.646721,-1.587909 -1.058607,-0.588115 -2.646516,-0.588115 -1.881968,0 -3.17582,0.823361 -1.235041,0.764549 -1.99959,2.058401 -0.705737,1.293852 -0.999795,2.940574 -0.294057,1.587909 -0.294057,3.23463 z"
         style="font-style:normal;font-variant:normal;font-weight:normal;font-stretch:normal;font-family:'My Best Shot';-inkscape-font-specification:'My Best Shot';fill:#f4d7d7;stroke-width:0.30630973"
         id="path46"
         inkscape:connector-curvature="0" />
      <path
         d="m 113.50025,33.033205 q 2.64651,0 4.29324,1.352663 1.70553,1.352664 2.64651,3.411066 0.9998,1.99959 1.35267,4.41086 0.41168,2.41127 0.41168,4.469672 0,0.882172 -0.11763,2.293647 -0.0588,1.411475 -0.29405,3.058196 -0.23525,1.58791 -0.64693,3.234631 -0.41168,1.646721 -1.05861,2.999385 -0.64692,1.293853 -1.52909,2.117213 -0.88218,0.823361 -2.11722,0.823361 -1.17623,0 -1.76434,-0.705738 -0.58812,-0.764549 -0.88217,-1.764344 -0.17644,-0.646926 -0.23525,-1.646721 -0.0588,-1.058607 -0.0588,-2.117213 0,-1.117418 0,-2.176025 0,-1.058606 0,-1.764344 0,-3.058196 0,-6.351638 0.0588,-3.352254 -0.70574,-6.351639 -1.76434,1.58791 -3.46988,4.293237 -1.64672,2.705328 -3.17581,5.763524 -1.47029,2.999385 -2.70533,5.99877 -1.23504,2.999385 -2.11722,5.234221 -0.29405,0.823361 -0.88217,1.117418 -0.588112,0.352869 -1.352661,0.470492 -0.999795,0 -1.881967,-0.529304 -0.823361,-0.470491 -1.411476,-1.293852 -0.764549,-0.999795 -1.235041,-2.352459 -0.41168,-1.411475 -0.646926,-2.881762 -0.235246,-1.529098 -0.294057,-2.999385 -0.05881,-1.529098 -0.05881,-2.764139 0,-1.176229 0.05881,-2.999385 0.117623,-1.881967 0.41168,-3.940368 0.294058,-2.117213 0.823361,-4.234426 0.529303,-2.176024 1.352664,-3.881557 0.82336,-1.705533 2.058401,-2.764139 1.235041,-1.058607 2.881762,-1.058607 0.9998,0 1.64672,0.705738 0.70574,0.705738 0.70574,1.705533 0,0.117623 -0.0588,0.235245 0,0.05881 0,0.176435 -0.64693,3.646311 -1.05861,7.174999 -0.41168,3.528688 -0.64693,7.233811 0.70574,-1.411475 1.94078,-3.705123 1.29386,-2.352458 2.88177,-4.528483 1.5879,-2.234836 3.35225,-3.822745 1.82315,-1.646721 3.5875,-1.646721 z"
         style="font-style:normal;font-variant:normal;font-weight:normal;font-stretch:normal;font-family:'My Best Shot';-inkscape-font-specification:'My Best Shot';fill:#f4d7d7;stroke-width:0.30630973"
         id="path48"
         inkscape:connector-curvature="0" />
      <path
         d="m 144.39924,33.033205 q 2.64652,0 4.29324,1.352663 1.70553,1.352664 2.64652,3.411066 0.99979,1.99959 1.35266,4.41086 0.41168,2.41127 0.41168,4.469672 0,0.882172 -0.11762,2.293647 -0.0588,1.411475 -0.29406,3.058196 -0.23525,1.58791 -0.64693,3.234631 -0.41168,1.646721 -1.0586,2.999385 -0.64693,1.293853 -1.5291,2.117213 -0.88217,0.823361 -2.11721,0.823361 -1.17623,0 -1.76435,-0.705738 -0.58811,-0.764549 -0.88217,-1.764344 -0.17643,-0.646926 -0.23525,-1.646721 -0.0588,-1.058607 -0.0588,-2.117213 0,-1.117418 0,-2.176025 0,-1.058606 0,-1.764344 0,-3.058196 0,-6.351638 0.0588,-3.352254 -0.70573,-6.351639 -1.76435,1.58791 -3.46988,4.293237 -1.64672,2.705328 -3.17582,5.763524 -1.47029,2.999385 -2.70533,5.99877 -1.23504,2.999385 -2.11721,5.234221 -0.29406,0.823361 -0.88217,1.117418 -0.58812,0.352869 -1.35267,0.470492 -0.99979,0 -1.88196,-0.529304 -0.82336,-0.470491 -1.41148,-1.293852 -0.76455,-0.999795 -1.23504,-2.352459 -0.41168,-1.411475 -0.64693,-2.881762 -0.23524,-1.529098 -0.29405,-2.999385 -0.0588,-1.529098 -0.0588,-2.764139 0,-1.176229 0.0588,-2.999385 0.11762,-1.881967 0.41168,-3.940368 0.29405,-2.117213 0.82336,-4.234426 0.5293,-2.176024 1.35266,-3.881557 0.82336,-1.705533 2.0584,-2.764139 1.23504,-1.058607 2.88176,-1.058607 0.9998,0 1.64673,0.705738 0.70573,0.705738 0.70573,1.705533 0,0.117623 -0.0588,0.235245 0,0.05881 0,0.176435 -0.64692,3.646311 -1.0586,7.174999 -0.41168,3.528688 -0.64693,7.233811 0.70574,-1.411475 1.94078,-3.705123 1.29385,-2.352458 2.88176,-4.528483 1.58791,-2.234836 3.35225,-3.822745 1.82316,-1.646721 3.5875,-1.646721 z"
         style="font-style:normal;font-variant:normal;font-weight:normal;font-stretch:normal;font-family:'My Best Shot';-inkscape-font-specification:'My Best Shot';fill:#f4d7d7;stroke-width:0.30630973"
         id="path50"
         inkscape:connector-curvature="0" />
      <path
         d="m 161.18348,31.033615 q 1.05861,0 1.64673,0.646926 0.58811,0.646926 0.70573,1.646721 0.11763,0.82336 0.11763,1.881967 0.0588,0.999795 0,2.058401 0,1.058607 -0.0588,2.117213 0,0.999795 0,1.881967 0,1.764344 0,4.057992 0,2.234836 -0.0588,4.587294 -0.0588,2.352459 -0.23524,4.587295 -0.11763,2.234836 -0.41168,3.881557 -0.17644,0.882172 -0.82336,1.470287 -0.58812,0.588115 -1.5291,0.588115 -1.29385,0 -2.23484,-0.823361 -0.88217,-0.882172 -1.5291,-2.176024 -0.58811,-1.352664 -0.99979,-2.999385 -0.35287,-1.705533 -0.5293,-3.352254 -0.17644,-1.646721 -0.23525,-3.117008 -0.0588,-1.470287 -0.0588,-2.352459 0,-1.058606 0.0588,-2.528893 0.0588,-1.470287 0.23525,-3.058197 0.17643,-1.646721 0.58811,-3.23463 0.41168,-1.646722 1.05861,-2.881762 0.70574,-1.293853 1.76434,-2.058402 1.05861,-0.82336 2.52889,-0.82336 z m -4.23442,-6.351639 q 0,-1.646721 0.99979,-2.646516 1.05861,-0.999795 2.70533,-0.999795 1.64672,0 2.64652,0.999795 0.99979,0.999795 0.99979,2.646516 0,1.646721 -0.99979,2.705327 -0.9998,0.999795 -2.64652,0.999795 -1.70553,0 -2.70533,-0.999795 -0.99979,-0.999795 -0.99979,-2.705327 z"
         style="font-style:normal;font-variant:normal;font-weight:normal;font-stretch:normal;font-family:'My Best Shot';-inkscape-font-specification:'My Best Shot';fill:#f4d7d7;stroke-width:0.30630973"
         id="path52"
         inkscape:connector-curvature="0" />
    </g>
  </g>
</svg>
